<?xml version="1.0" encoding="UTF-8" standalone="no"?>
<!-- Created with Inkscape (http://www.inkscape.org/) -->

<svg
   version="1.1"
   id="svg2"
   width="234.12"
   height="355.25333"
   viewBox="0 0 234.12 355.25333"
   sodipodi:docname="Logo Version Finale copie_FavIcon.eps"
   xmlns:inkscape="http://www.inkscape.org/namespaces/inkscape"
   xmlns:sodipodi="http://sodipodi.sourceforge.net/DTD/sodipodi-0.dtd"
   xmlns="http://www.w3.org/2000/svg"
   xmlns:svg="http://www.w3.org/2000/svg">
  <defs
     id="defs6" />
  <sodipodi:namedview
     id="namedview4"
     pagecolor="#ffffff"
     bordercolor="#000000"
     borderopacity="0.25"
     inkscape:showpageshadow="2"
     inkscape:pageopacity="0.0"
     inkscape:pagecheckerboard="0"
     inkscape:deskcolor="#d1d1d1" />
  <g
     id="g8"
     inkscape:groupmode="layer"
     inkscape:label="ink_ext_XXXXXX"
     transform="matrix(1.3333333,0,0,-1.3333333,0,355.25333)">
    <g
       id="g10"
       transform="scale(0.1)">
      <path
         d="m 1691.9,818.988 c -8.7,-23.566 -26.38,-38.168 -51.07,-39.008 -51.92,-1.402 -104.11,-1.679 -156.03,0 -30.87,1.129 -53.87,28.348 -54.16,58.942 -0.56,30.59 21.89,58.918 52.77,60.328 53.31,1.961 106.63,1.398 159.94,-0.281 12.35,-0.278 24.42,-9.27 31.44,-12.071 19.92,-23.57 25.81,-44.617 17.11,-67.91 z m -392.88,545.262 c 33.96,68.47 68.2,137.5 103.55,208.78 30.31,-27.78 62.87,-47.14 105.53,-50.5 -39.01,-78.59 -76.9,-155.2 -115.35,-232.37 -31.98,25.26 -62.02,49.11 -93.73,74.09 z m 152.95,380.25 c 37.6,37.61 97.37,38.44 134.99,1.41 37.59,-37.05 37.88,-97.39 0.56,-134.99 -37.33,-37.89 -97.1,-38.45 -134.99,-1.4 -37.32,36.48 -37.61,97.37 -0.56,134.98 z M 713.93,1626.91 c -37.055,0 -52.207,16 -52.207,54.45 0,40.69 14.32,56.69 52.207,56.69 109.152,0.28 218.593,0.28 328.04,-0.28 13.19,0 26.39,-5.06 35.07,-6.74 22.46,-26.94 20.5,-52.48 13.2,-76.89 -6.73,-22.45 -26.65,-27.5 -48.27,-27.5 -109.157,0.27 -218.599,0 -328.04,0.27 z m 304.76,-156.58 c -93.182,14.87 -187.745,15.43 -280.92,-0.28 0,32.83 0.289,63.7 0.289,93.45 92.601,0 186.339,-0.29 281.191,-0.29 -0.29,-29.18 -0.29,-59.77 -0.56,-92.88 z m -3.66,425.99 v -92.61 c -89.233,0 -183.534,0 -278.096,0.28 0,29.47 0.273,62.02 0.273,92.89 92.891,-0.28 186.902,-0.28 277.823,-0.56 z m -353.022,108.6 c -0.559,8.14 -0.559,15.99 0,24.13 1.687,26.11 17.39,42.66 43.492,42.94 114.5,0.28 229.273,0.28 344.06,0 26.94,-0.28 43.21,-17.12 44.32,-44.06 0.85,-19.08 3.1,-39 -11.78,-57.52 -10.66,-3.09 -21.05,-8.98 -31.71,-8.98 -114.769,-0.85 -229.269,-0.85 -344.054,-0.29 -26.938,0 -42.93,16.84 -44.328,43.78 z m -0.285,346.57 c 0.285,37.33 14.593,54.45 48.273,54.72 111.961,0.29 224.215,0.29 336.194,-0.27 33.95,0 47.98,-17.4 47.98,-56.69 0,-37.04 -14.88,-53.88 -48.55,-54.16 -42.09,-0.57 -84.182,0 -126.003,-0.29 -15.719,0 -27.504,-6.17 -31.707,-22.16 -3.933,-14.88 1.684,-26.94 14.867,-33.68 6.465,-3.64 15.153,-3.92 23.02,-3.92 31.433,-0.29 62.578,0.28 93.163,0.28 0,-35.08 -0.27,-67.64 -0.27,-97.94 -92.893,0.28 -187.194,0.28 -280.069,0.56 0.274,28.91 0.274,61.74 0.563,98.22 15.988,-0.28 34.515,-1.41 53.027,-1.12 22.172,0 34.805,11.5 34.805,29.74 0,18.24 -12.911,29.74 -35.078,30.02 -27.227,0.29 -54.731,-0.28 -81.942,0.29 -34.242,0.56 -48.273,17.4 -48.273,56.4 z m 73.8,167.54 c 2.536,44.62 34.805,78.58 79.418,80.54 41.821,1.68 83.914,1.68 126.008,0 45.18,-1.96 77.451,-36.77 79.421,-82.23 0.84,-15.99 0,-31.99 0,-45.18 -94.573,0 -188.874,0 -285.393,0.29 0,13.46 -0.289,30.02 0.546,46.58 z M 363.145,1290.16 c -38.45,77.46 -76.336,153.51 -115.059,231.81 41.242,5.33 75.484,21.32 104.945,51.91 35.367,-71.28 69.883,-140.88 104.114,-209.63 -31.985,-25.25 -62.02,-49.11 -94,-74.09 z M 169.5,1610.08 c -37.871,37.32 -38.449,97.1 -1.684,134.7 37.051,37.6 97.383,37.88 134.985,0.56 37.887,-37.32 38.445,-97.09 1.41,-134.7 -37.055,-37.61 -97.109,-37.89 -134.711,-0.56 z m 95.973,-709.99 c 26.39,-0.281 46.027,-13.469 55.578,-38.449 9.535,-24.129 3.644,-45.743 -18.528,-70.711 -8.699,-2.532 -23.293,-10.668 -38.449,-10.95 -47.148,-1.679 -94.574,-1.109 -142,-0.558 -35.9138,0.277 -61.7263,26.098 -62.0154,60.058 0,33.391 26.1016,60.051 61.4574,60.61 47.984,0.84 95.972,0.84 143.957,0 z M 737.77,209.18 c 93.175,-14.86 187.175,-14.86 280.07,0 0,-2.801 0,-5.602 0.28,-8.41 0.84,-22.731 3.09,-44.622 1.13,-66.508 -3.65,-40.9729 -37.617,-72.1214 -79.148,-73.5237 -41.247,-1.4102 -82.778,-1.4102 -124.036,0 -41.804,1.4023 -75.773,32.2734 -79.418,73.2417 -1.671,19.641 -0.277,39.29 0.559,59.77 0.289,5.051 0.563,10.379 0.563,15.43 z m 894.64,751.242 c -19.37,0.289 -38.44,-1.391 -57.8,-1.961 -2.25,9.539 -3.93,15.988 -5.34,22.449 -21.89,91.49 -62.3,174.27 -122.07,246.96 -8.7,10.66 -9.55,17.96 -3.64,29.74 43.2,86.43 85.86,173.43 129.36,259.58 5.05,9.82 14.31,19.08 23.86,24.97 67.62,40.14 96.53,122.08 67.06,194.2 -29.75,72.96 -109.44,112.25 -185.49,91.21 -75.49,-20.77 -122.64,-93.46 -112.81,-171.75 1.12,-9.82 -0.28,-21.33 -4.5,-30.02 -24.96,-52.48 -50.78,-104.4 -76.88,-156.32 -12.35,-24.69 -24.98,-49.67 -35.93,-71.56 -54.71,19.65 -107.47,38.17 -159.68,57.81 -3.91,1.41 -7.29,9.82 -7.57,15.16 -0.56,28.62 -1.13,57.53 0.28,86.15 0.28,6.46 6.17,15.43 12.06,18.52 42.95,21.61 60.62,56.69 61.18,103.83 0.84,49.4 -15.71,87.56 -61.45,109.45 -9.26,4.21 -12.91,8.98 -12.63,19.36 0.84,27.22 0.56,54.73 0,81.94 0,9.82 1.97,15.44 11.78,19.93 44.63,20.2 62.02,56.68 62.3,104.67 0.57,49.39 -16.55,86.72 -62.3,109.17 -5.33,2.8 -10.66,11.22 -10.94,17.39 -1.12,26.67 0,53.32 -0.84,79.99 -0.28,12.34 2.8,18.23 14.59,24.13 44.07,21.32 60.06,58.93 59.49,106.63 -0.28,46.88 -16.84,83.35 -60.05,104.12 -10.94,5.33 -14.6,10.94 -13.75,22.17 2.81,44.06 -2.24,86.43 -27.5,124.6 l -31.16,31.15 c -97.642,39.84 -195.024,42.09 -291.849,-3.09 -9.246,-9.26 -18.796,-18.8 -28.336,-28.06 -5.617,-12.07 -14.031,-23.29 -16.277,-35.93 -5.058,-30.02 -7.851,-60.33 -10.098,-90.64 -0.562,-9.82 -2.808,-15.16 -12.074,-19.36 -45.738,-21.05 -62.304,-58.65 -62.015,-107.19 0,-47.72 17.113,-83.92 60.894,-106.09 5.617,-2.8 12.07,-10.38 12.344,-16.27 1.125,-29.19 1.125,-58.66 0,-88.12 -0.274,-5.33 -5.606,-12.91 -10.66,-15.43 -44.903,-21.61 -62.578,-58.37 -62.578,-106.92 -0.289,-48.55 16.55,-86.15 62.015,-106.92 9.824,-4.21 12.348,-9.55 12.074,-19.36 -0.851,-26.94 -0.851,-53.6 0,-80.26 0.274,-11.23 -2.535,-17.12 -13.757,-22.45 -44.344,-20.77 -60.621,-58.37 -60.332,-106.08 0,-47.7 16.839,-83.91 60.617,-106.08 5.894,-3.09 12.347,-11.78 12.621,-18.23 1.414,-28.63 -0.274,-57.54 0.851,-86.16 0.274,-12.06 -5.058,-15.15 -15.156,-18.81 -46.027,-16.83 -91.765,-35.07 -137.793,-52.75 -4.207,-1.69 -8.414,-3.09 -13.468,-5.06 -39.848,80.27 -79.422,159.69 -118.43,239.1 -2.797,5.9 -1.399,14.32 -0.551,21.33 7.566,64.54 -15.441,116.18 -68.758,151.82 -74.09,49.67 -172.871,26.66 -218.336,-48.83 -45.4489,-75.48 -19.6364,-171.75 57.25,-216.92 8.989,-5.33 17.688,-14.32 22.457,-23.58 42.657,-84.47 83.903,-169.78 126.844,-254.25 7.852,-15.43 10.102,-26.94 -4.492,-39.56 -8.141,-7.3 -13.758,-17.97 -20.484,-26.94 -50.508,-71.28 -84.477,-149.58 -102.426,-236.852 -18.801,0.274 -37.328,0.563 -55.856,0.274 C 54.168,959.859 0.5625,908.789 0,840.602 -0.273438,771 53.043,719.648 126.57,719.09 c 18.512,0 36.766,1.121 53.59,1.68 66.238,-268.282 238.82,-425.149 495.594,-499.79 0,-7.582 -0.274,-14.878 -0.274,-22.46 -0.289,-17.11 -0.562,-34.231 -0.289,-51.348 1.411,-84.4728 62.868,-145.93372 147.618,-147.043094 34.789,-0.289062 69.593,0 104.113,0 92.328,0.269532 153.498,61.171894 153.498,152.930094 0.28,18.519 -1.13,37.32 -1.96,55.57 -0.29,4.211 -0.29,8.422 -0.57,12.633 10.66,3.367 16.56,5.047 22.17,6.726 84.47,23.582 162.2,60.891 232.36,113.383 17.4,13.18 21.89,30.02 11.22,44.617 -10.66,14.864 -26.94,16.551 -45.74,4.203 -7.58,-5.05 -15.15,-10.941 -22.72,-15.992 -121.51,-81.937 -256.49,-117.578 -401.59,-115.621 -209.059,2.801 -389.219,71.844 -524.477,237.973 -52.48,64.828 -86.722,138.629 -104.961,222.258 36.477,-1.129 70.43,4.203 98.219,28.621 28.336,24.422 43.219,55.57 43.219,92.89 -0.289,70.16 -42.094,106.629 -140.313,122.629 1.121,6.461 1.957,12.91 3.645,19.082 35.351,133.029 108.879,241.339 223.664,316.549 224.215,147.33 463.598,162.77 708.024,58.09 163.32,-70.16 273.88,-193.35 324.12,-366.498 2.52,-9.262 4.49,-18.801 6.74,-28.344 -90.37,-6.738 -138.07,-47.148 -140.88,-117.019 -3.09,-72.957 40.12,-112.25 140.32,-127.688 -0.85,-3.922 -1.42,-7.859 -2.25,-11.5 -21.05,-86.723 -62.31,-162.769 -119.55,-230.68 -15.16,-18.242 -15.43,-35.64 -1.4,-47.421 14.3,-12.629 32.55,-8.981 48.26,9.82 49.39,58.648 88.68,123.191 113.66,196.16 9.54,27.781 16.84,56.121 26.65,88.391 17.96,-0.84 37.33,-2.801 56.41,-2.52 70.72,0.84 123.2,52.75 123.2,120.668 0,67.352 -53.04,119.551 -123.48,120.383"
         style="fill:#45bf9c;fill-opacity:1;fill-rule:nonzero;stroke:none"
         id="path12" />
      <path
         d="m 1235.05,756.691 c -0.85,-43.769 -19.09,-81.101 -50.24,-113.371 -31.14,-30.308 -69.32,-49.109 -113.66,-49.39 -128.802,-0.84 -257.603,-2.25 -386.408,0.281 -89.531,1.687 -159.965,72.961 -163.894,162.758 -2.25,55.293 -1.961,110.57 0.285,165.851 3.644,89.52 74.363,161.08 163.883,162.49 128.531,2.24 257.332,2.24 386.134,0 89.25,-1.41 159.96,-72.97 163.9,-162.49 2.24,-55.281 1.4,-110.84 0,-166.129 z m -160.53,388.669 c -131.61,3.09 -263.223,1.4 -394.559,0 -59.484,-0.56 -109.441,-26.38 -150.977,-66.51 -45.175,-46.58 -68.195,-101.311 -68.746,-164.729 -0.574,-50.793 -1.121,-101.59 0,-152.383 2.524,-126.277 102.989,-227.027 229.274,-228.148 125.718,-1.399 251.152,-1.399 376.598,-0.27 126.28,1.11 227.31,102.141 229.54,228.141 0.85,52.199 0.85,104.109 0,156.309 -2.23,122.92 -98.49,224.79 -221.13,227.59"
         style="fill:#45bf9c;fill-opacity:1;fill-rule:nonzero;stroke:none"
         id="path14" />
      <path
         d="m 797.711,804.648 c -17.078,16.481 -19.231,33.313 -6.039,47.192 12.808,13.48 27.867,12.762 45.797,-2.18 28.554,-23.801 53.074,-23.539 82.215,0.871 16.718,14 31.57,14.539 44.199,1.61 12.902,-13.219 11.519,-30.469 -3.684,-45.993 -43.672,-44.57 -117.14,-45.25 -162.488,-1.5"
         style="fill:#45bf9c;fill-opacity:1;fill-rule:nonzero;stroke:none"
         id="path16" />
      <path
         d="m 653.734,902.141 c 3.414,-9.961 7.356,-16.653 7.746,-23.539 0.946,-16.59 1.067,-33.34 -0.042,-49.922 -1.184,-17.719 -13.696,-29.008 -30.094,-28.102 -16.996,0.934 -27.602,10.543 -28.86,27.402 -1.285,17.231 -2.843,35.129 0.582,51.739 2.028,9.793 11.938,20.902 21.211,25.351 7.629,3.649 19.547,-1.629 29.457,-2.929"
         style="fill:#45bf9c;fill-opacity:1;fill-rule:nonzero;stroke:none"
         id="path18" />
      <path
         d="m 1146.91,810.699 c -16.6,-17.48 -47.04,-11.269 -50.67,10.672 -3.43,20.688 -3.71,42.859 0.13,63.348 1.66,8.84 16.67,20.019 26.56,21.043 8.84,0.918 26.15,-9.621 27.22,-16.934 3.39,-23.199 1.09,-47.25 0.51,-70.957 -0.07,-2.922 -2.99,-5.781 -3.75,-7.172"
         style="fill:#45bf9c;fill-opacity:1;fill-rule:nonzero;stroke:none"
         id="path20" />
    </g>
  </g>
</svg>
