<?xml version="1.0" encoding="UTF-8" standalone="no"?>
<!-- Created with Inkscape (http://www.inkscape.org/) -->

<svg
   version="1.1"
   id="svg2"
   width="1432.72"
   height="761.93335"
   viewBox="0 0 1432.72 761.93335"
   sodipodi:docname="Logo Version Finale copie_Logo Noir.eps"
   xmlns:inkscape="http://www.inkscape.org/namespaces/inkscape"
   xmlns:sodipodi="http://sodipodi.sourceforge.net/DTD/sodipodi-0.dtd"
   xmlns="http://www.w3.org/2000/svg"
   xmlns:svg="http://www.w3.org/2000/svg">
  <defs
     id="defs6" />
  <sodipodi:namedview
     id="namedview4"
     pagecolor="#ffffff"
     bordercolor="#000000"
     borderopacity="0.25"
     inkscape:showpageshadow="2"
     inkscape:pageopacity="0.0"
     inkscape:pagecheckerboard="0"
     inkscape:deskcolor="#d1d1d1" />
  <g
     id="g8"
     inkscape:groupmode="layer"
     inkscape:label="ink_ext_XXXXXX"
     transform="matrix(1.3333333,0,0,-1.3333333,0,761.93333)">
    <g
       id="g10"
       transform="scale(0.1)">
      <path
         d="m 2364.38,2516.11 c 78.01,0 143.23,21.58 195.67,64.74 52.43,43.17 91.6,101.2 117.5,174.1 25.9,72.89 38.85,154.09 38.85,243.62 0,90.16 -12.95,171.84 -38.85,245.07 -25.9,73.21 -65.07,131.56 -117.5,175.05 -52.44,43.47 -117.66,65.22 -195.67,65.22 -79.94,0 -146.27,-21.75 -199.03,-65.22 -52.76,-43.49 -92.08,-101.84 -117.98,-175.05 -25.9,-73.23 -38.84,-154.91 -38.84,-245.07 0,-89.53 12.94,-170.73 38.84,-243.62 25.9,-72.9 65.22,-130.93 117.98,-174.1 52.76,-43.16 119.09,-64.74 199.03,-64.74 z m -1.92,-278.16 c -143.87,0 -268.56,31.66 -374.07,94.97 -105.51,63.29 -187.2,151.85 -245.07,265.68 -57.88,113.81 -86.8,246.82 -86.8,399.01 0,152.18 28.92,285.5 86.8,399.97 57.87,114.46 139.56,203.35 245.07,266.66 105.51,63.29 230.2,94.95 374.07,94.95 143.87,0 268.56,-31.66 374.08,-94.95 105.5,-63.31 187.18,-152.2 245.06,-266.66 57.87,-114.47 86.81,-247.79 86.81,-399.97 0,-152.19 -28.94,-285.2 -86.81,-399.01 -57.88,-113.83 -139.56,-202.39 -245.06,-265.68 -105.52,-63.31 -230.21,-94.97 -374.08,-94.97"
         style="fill:#171818;fill-opacity:1;fill-rule:nonzero;stroke:none"
         id="path12" />
      <path
         d="m 4526.29,3350.59 -316.53,-34.54 c -8.95,31.97 -24.46,62.03 -46.51,90.17 -22.07,28.13 -51.65,50.83 -88.73,68.1 -37.09,17.26 -82.48,25.9 -136.2,25.9 -72.27,0 -132.84,-15.68 -181.76,-47 -48.91,-31.34 -73.06,-71.94 -72.41,-121.82 -0.65,-42.84 15.17,-77.69 47.47,-104.55 32.28,-26.85 85.85,-48.92 160.66,-66.18 l 251.3,-53.71 c 139.4,-30.07 243.15,-77.7 311.25,-142.92 68.1,-65.22 102.47,-150.59 103.11,-256.09 -0.64,-92.73 -27.67,-174.42 -81.05,-245.07 -53.4,-70.66 -127.42,-125.82 -222.04,-165.46 -94.65,-39.64 -203.34,-59.47 -326.12,-59.47 -180.32,0 -325.49,37.89 -435.46,113.66 -109.99,75.78 -175.53,181.44 -196.63,317.01 l 338.59,32.61 c 15.35,-66.51 47.95,-116.7 97.83,-150.59 49.88,-33.9 114.77,-50.83 194.71,-50.83 82.49,0 148.82,16.93 199.03,50.83 50.19,33.89 75.29,75.78 75.29,125.66 0,42.2 -16.16,77.04 -48.43,104.55 -32.3,27.48 -82.35,48.58 -150.12,63.29 l -251.29,52.76 c -141.33,29.41 -245.88,79.13 -313.65,149.15 -67.79,70.02 -101.36,158.74 -100.71,266.17 -0.65,90.79 24.13,169.61 74.33,236.43 50.19,66.81 120.21,118.61 210.06,155.38 89.83,36.77 193.58,55.16 311.25,55.16 172.65,0 308.69,-36.78 408.12,-110.31 99.42,-73.53 160.98,-172.97 184.64,-298.29"
         style="fill:#171818;fill-opacity:1;fill-rule:nonzero;stroke:none"
         id="path14" />
      <path
         d="m 6009.13,3350.59 -316.53,-34.54 c -8.95,31.97 -24.45,62.03 -46.51,90.17 -22.07,28.13 -51.65,50.83 -88.73,68.1 -37.09,17.26 -82.48,25.9 -136.2,25.9 -72.27,0 -132.84,-15.68 -181.76,-47 -48.91,-31.34 -73.06,-71.94 -72.41,-121.82 -0.65,-42.84 15.17,-77.69 47.48,-104.55 32.27,-26.85 85.84,-48.92 160.65,-66.18 l 251.31,-53.71 c 139.39,-30.07 243.14,-77.7 311.24,-142.92 68.1,-65.22 102.47,-150.59 103.11,-256.09 -0.64,-92.73 -27.67,-174.42 -81.04,-245.07 -53.41,-70.66 -127.42,-125.82 -222.05,-165.46 -94.65,-39.64 -203.34,-59.47 -326.12,-59.47 -180.32,0 -325.49,37.89 -435.46,113.66 -109.99,75.78 -175.52,181.44 -196.62,317.01 l 338.58,32.61 c 15.35,-66.51 47.95,-116.7 97.83,-150.59 49.88,-33.9 114.77,-50.83 194.71,-50.83 82.49,0 148.82,16.93 199.03,50.83 50.19,33.89 75.29,75.78 75.29,125.66 0,42.2 -16.16,77.04 -48.43,104.55 -32.3,27.48 -82.35,48.58 -150.12,63.29 l -251.29,52.76 c -141.33,29.41 -245.88,79.13 -313.65,149.15 -67.79,70.02 -101.36,158.74 -100.71,266.17 -0.65,90.79 24.13,169.61 74.33,236.43 50.19,66.81 120.21,118.61 210.06,155.38 89.83,36.77 193.58,55.16 311.25,55.16 172.65,0 308.69,-36.78 408.12,-110.31 99.42,-73.53 160.98,-172.97 184.64,-298.29"
         style="fill:#171818;fill-opacity:1;fill-rule:nonzero;stroke:none"
         id="path16" />
      <path
         d="m 6596.67,4530.99 c -9.36,-1.48 -18.99,-2.81 -28.75,-3.75 0.4,-10.83 1.47,-21.26 0.54,-31.69 -1.74,-19.52 -17.92,-34.36 -37.71,-35.03 -19.66,-0.67 -39.45,-0.67 -59.11,0 -19.92,0.67 -36.1,15.37 -37.84,34.9 -0.8,9.35 -0.13,18.72 0.27,28.48 -10.03,0.53 -19.79,1.34 -29.42,2.27 -27.41,2.81 -53.22,6.95 -77.15,12.3 V 47.2891 h 347.26 V 4548.64 c -23.4,-7.22 -49.74,-13.37 -78.09,-17.65"
         style="fill:#171818;fill-opacity:1;fill-rule:nonzero;stroke:none"
         id="path18" />
      <path
         d="m 7387.41,3003.37 c 0,-95.29 13.58,-178.74 40.77,-250.35 27.17,-71.62 66.5,-127.42 117.98,-167.36 51.46,-39.98 113.97,-59.95 187.51,-59.95 76.74,0 141,20.62 192.79,61.86 51.8,41.24 90.96,97.83 117.5,169.78 26.53,71.93 39.81,153.94 39.81,246.02 0,91.43 -13.11,172.65 -39.33,243.63 -26.22,70.97 -65.22,126.6 -117.01,166.89 -51.8,40.28 -116.39,60.43 -193.76,60.43 -74.18,0 -137.15,-19.52 -188.95,-58.51 -51.8,-39.01 -90.97,-93.68 -117.5,-164.02 -26.54,-70.35 -39.81,-153.15 -39.81,-248.42 z m -340.5,-736.64 V 4231.1 h 347.21 v -734.72 h 14.4 c 17.89,35.8 43.16,74.01 75.77,114.62 32.61,40.6 76.73,75.44 132.37,104.55 55.63,29.09 126.6,43.64 212.93,43.64 113.81,0 216.6,-28.94 308.37,-86.81 91.75,-57.87 164.65,-143.24 218.69,-256.09 54.03,-112.87 81.05,-251.16 81.05,-414.84 0,-161.79 -26.54,-299.26 -79.62,-412.44 -53.07,-113.18 -125.32,-199.51 -216.76,-258.97 -91.45,-59.47 -195.04,-89.21 -310.77,-89.21 -84.41,0 -154.43,14.08 -210.06,42.21 -55.63,28.13 -100.23,62.18 -133.8,102.15 -33.57,39.95 -59.63,77.84 -78.17,113.66 h -20.14 v -232.12 h -341.47"
         style="fill:#171818;fill-opacity:1;fill-rule:nonzero;stroke:none"
         id="path20" />
      <path
         d="M 9081.3,4231.1 V 2266.73 H 8734.08 V 4231.1 h 347.22"
         style="fill:#171818;fill-opacity:1;fill-rule:nonzero;stroke:none"
         id="path22" />
      <path
         d="m 10090.3,2237.95 c -147.68,0 -275.09,30.84 -382.2,92.57 -107.11,61.7 -189.43,149.29 -246.98,262.81 -57.55,113.49 -86.33,247.3 -86.33,401.41 0,151.54 28.93,284.7 86.81,399.48 57.87,114.77 138.92,204.31 243.14,268.57 104.24,64.26 226.69,96.4 367.36,96.4 90.8,0 176.6,-14.55 257.5,-43.64 80.9,-29.11 152.5,-74.03 214.9,-134.76 62.4,-60.76 111.4,-137.97 147.2,-231.64 35.8,-93.68 53.7,-205.12 53.7,-334.27 V 2908.41 H 9537.86 v 234.04 h 874.74 c -0.6,66.49 -15,125.8 -43.1,177.93 -28.2,52.1 -67.4,93.18 -117.6,123.24 -50.2,30.06 -108.5,45.09 -175,45.09 -71,0 -133.32,-17.12 -187.03,-51.32 -53.72,-34.21 -95.46,-78.98 -125.18,-134.29 -29.73,-55.31 -44.93,-115.9 -45.57,-181.75 v -204.31 c 0,-85.7 15.66,-159.06 47.02,-220.12 31.32,-61.08 75.11,-107.76 131.41,-140.04 56.23,-32.3 122.15,-48.44 197.55,-48.44 50.5,0 96.2,7.19 137.2,21.58 40.9,14.38 76.4,35.64 106.4,63.78 30.1,28.14 52.8,62.98 68.1,104.55 l 324.2,-36.45 c -20.4,-85.69 -59.3,-160.34 -116.5,-223.96 -57.2,-63.63 -130.3,-112.86 -219.2,-147.71 -88.8,-34.85 -190.5,-52.28 -305,-52.28"
         style="fill:#171818;fill-opacity:1;fill-rule:nonzero;stroke:none"
         id="path24" />
      <path
         d="M 4341.89,47.2891 V 1659.64 c 0,99.11 20.62,181.61 61.87,247.47 41.24,65.85 96.7,115.1 166.41,147.72 69.69,32.6 147.06,48.91 232.12,48.91 60.1,0 113.49,-4.79 160.18,-14.39 46.66,-9.59 81.2,-18.23 103.58,-25.9 L 4997,1794.88 c -14.72,4.48 -33.26,9.12 -55.64,13.92 -22.38,4.79 -47.32,7.19 -74.81,7.19 -64.59,0 -110.16,-15.51 -136.68,-46.52 -26.54,-31.02 -39.8,-75.29 -39.8,-132.84 V 47.2891 Z M 4995.08,1520.57 V 1252 h -870.92 v 268.57 h 870.92"
         style="fill:#171818;fill-opacity:1;fill-rule:nonzero;stroke:none"
         id="path26" />
      <path
         d="M 5267.45,47.2891 V 1520.57 h 336.67 v -245.55 h 15.34 c 26.86,85.03 73.05,150.74 138.6,197.11 65.54,46.35 140.52,69.54 224.93,69.54 19.18,0 40.76,-0.81 64.74,-2.4 23.99,-1.6 43.96,-4 59.95,-7.2 v -319.39 c -14.71,5.11 -37.89,9.74 -69.53,13.9 -31.66,4.16 -62.2,6.24 -91.61,6.24 -63.3,0 -120.06,-13.6 -170.25,-40.76 -50.21,-27.2 -89.68,-64.75 -118.45,-112.71 -28.78,-47.96 -43.17,-103.268 -43.17,-165.928 V 47.2891 h -347.22"
         style="fill:#171818;fill-opacity:1;fill-rule:nonzero;stroke:none"
         id="path28" />
      <path
         d="m 7685.48,18.5117 c -147.09,0 -273.22,32.2891 -378.4,96.8793 -105.19,64.578 -186.08,153.949 -242.67,268.089 -56.58,114.141 -84.88,245.7 -84.88,394.7 0,149.621 28.78,281.82 86.32,396.6 57.55,114.77 138.91,204.31 244.11,268.57 105.18,64.27 229.72,96.4 373.59,96.4 119.57,0 225.56,-21.91 317.96,-65.7 92.4,-43.81 166.09,-105.51 221.09,-185.12 54.99,-79.61 86.33,-172.5 94,-278.64 h -331.87 c -13.43,70.98 -45.25,130.29 -95.44,177.92 -50.2,47.63 -117.18,71.47 -200.94,71.47 -70.98,0 -133.32,-19.04 -187.04,-57.07 -53.71,-38.06 -95.43,-92.57 -125.17,-163.55 -29.73,-70.97 -44.6,-156.029 -44.6,-255.13 0,-100.399 14.7,-186.559 44.13,-258.489 29.39,-71.941 70.8,-127.25 124.21,-165.941 53.38,-38.699 116.2,-58.031 188.47,-58.031 51.15,0 97.02,9.742 137.64,29.25 40.6,19.5 74.65,47.801 102.15,84.89 27.49,37.082 46.36,82.161 56.59,135.243 H 8316.6 C 8308.29,446.621 8277.59,354.371 8224.53,274.129 8171.44,193.879 8099.19,131.219 8007.75,86.1406 7916.3,41.0586 7808.87,18.5117 7685.48,18.5117"
         style="fill:#171818;fill-opacity:1;fill-rule:nonzero;stroke:none"
         id="path30" />
      <path
         d="m 9116.52,272.699 c 69.69,0 130.12,13.903 181.28,41.723 51.15,27.82 90.64,64.738 118.46,110.777 27.82,46.039 41.73,96.231 41.73,150.59 v 173.609 c -10.89,-8.957 -29.26,-17.269 -55.16,-24.937 -25.89,-7.672 -54.83,-14.379 -86.8,-20.141 -31.99,-5.761 -63.63,-10.879 -94.96,-15.351 -31.33,-4.477 -58.51,-8.321 -81.53,-11.508 -51.79,-7.039 -98.16,-18.551 -139.08,-34.531 -40.93,-15.989 -73.23,-38.219 -96.88,-66.66 -23.66,-28.457 -35.48,-65.079 -35.48,-109.829 0,-63.941 23.33,-112.222 70.02,-144.832 46.66,-32.609 106.13,-48.91 178.4,-48.91 z M 9026.36,17.5586 c -93.37,0 -177.3,16.7812 -251.78,50.3516 -74.5,33.5698 -133.33,83.2808 -176.48,149.1488 -43.17,65.863 -64.75,147.07 -64.75,243.632 0,83.118 15.35,151.86 46.04,206.219 30.69,54.352 72.56,97.84 125.65,130.449 53.07,32.61 113.01,57.379 179.85,74.34 66.8,16.922 136.03,29.25 207.65,36.922 86.33,8.949 156.35,17.098 210.06,24.461 53.72,7.34 92.88,18.848 117.5,34.527 24.61,15.661 36.92,40.121 36.92,73.381 v 5.75 c 0,72.25 -21.43,128.19 -64.26,167.85 -42.85,39.65 -104.55,59.47 -185.12,59.47 -85.05,0 -152.36,-18.55 -201.9,-55.63 -49.57,-37.09 -82.97,-80.9 -100.23,-131.41 l -324.2,46.04 c 25.56,89.52 67.77,164.5 126.61,224.93 58.82,60.43 130.75,105.82 215.81,136.2 85.03,30.36 179.03,45.56 281.99,45.56 70.98,0 141.63,-8.32 211.98,-24.94 70.33,-16.64 134.59,-43.97 192.79,-82.01 58.18,-38.05 105.03,-89.68 140.52,-154.9 35.48,-65.22 53.23,-146.75 53.23,-244.58 V 47.2891 H 9470.45 V 249.672 h -11.51 c -21.1,-40.934 -50.68,-79.121 -88.72,-114.613 C 9332.17,99.5703 9284.52,71.1094 9227.3,49.6914 9170.07,28.2695 9103.09,17.5586 9026.36,17.5586"
         style="fill:#171818;fill-opacity:1;fill-rule:nonzero;stroke:none"
         id="path32" />
      <path
         d="M 2468.42,53.1602 H 2145.33 V 376.25 h 323.09 V 53.1602"
         style="fill:#45bf9c;fill-opacity:1;fill-rule:nonzero;stroke:none"
         id="path34" />
      <path
         d="m 354.215,3017.63 c 0,-99.13 14.129,-185.93 42.406,-260.42 28.266,-74.52 69.18,-132.56 122.731,-174.12 53.539,-41.58 118.566,-62.36 195.066,-62.36 79.824,0 146.68,21.45 200.559,64.35 53.878,42.91 94.623,101.78 122.233,176.61 27.59,74.84 41.41,160.15 41.41,255.94 0,95.12 -13.65,179.6 -40.91,253.44 -27.29,73.83 -67.855,131.7 -121.733,173.61 -53.879,41.91 -121.079,62.86 -201.559,62.86 -77.168,0 -142.684,-20.3 -196.563,-60.86 -53.878,-40.58 -94.632,-97.46 -122.23,-170.62 -27.605,-73.19 -41.41,-159.32 -41.41,-258.43 z M 0,1676.6 v 2107.33 h 355.215 v -253.44 h 20.953 c 18.621,37.24 44.898,76.99 78.824,119.24 33.926,42.23 79.828,78.48 137.696,108.75 57.875,30.27 131.714,45.4 221.511,45.4 118.391,0 225.331,-30.1 320.791,-90.3 95.44,-60.2 171.27,-149.01 227.5,-266.41 56.2,-117.41 84.31,-261.26 84.31,-431.54 0,-168.29 -27.61,-311.31 -82.82,-429.05 -55.22,-117.74 -130.38,-207.54 -225.5,-269.4 -95.13,-61.87 -202.89,-92.8 -323.285,-92.8 -87.804,0 -160.644,14.64 -218.511,43.91 -57.875,29.26 -104.27,64.68 -139.196,106.26 -34.918,41.56 -62.035,80.98 -81.32,118.24 H 361.203 V 1676.6 H 0"
         style="fill:#171818;fill-opacity:1;fill-rule:nonzero;stroke:none"
         id="path36" />
      <path
         d="m 3280.5,265.41 c 72.49,0 135.35,14.469 188.58,43.391 53.21,28.941 94.29,67.359 123.23,115.262 28.93,47.886 43.4,100.097 43.4,156.648 v 180.59 c -11.32,-9.321 -30.43,-17.949 -57.38,-25.93 -26.94,-7.992 -57.04,-14.973 -90.3,-20.961 -33.26,-5.98 -66.19,-11.32 -98.78,-15.969 -32.6,-4.652 -60.86,-8.652 -84.8,-11.961 -53.89,-7.339 -102.13,-19.3 -144.68,-35.929 -42.58,-16.629 -76.18,-39.762 -100.78,-69.352 -24.62,-29.59 -36.92,-67.687 -36.92,-114.23 0,-66.539 24.27,-116.75 72.84,-150.668 48.55,-33.93 110.41,-50.891 185.59,-50.891 z M 3186.71,0 c -97.13,0 -184.44,17.4609 -261.92,52.3906 -77.5,34.918 -138.7,86.6294 -183.6,155.1404 -44.9,68.508 -67.35,153 -67.35,253.438 0,86.461 15.97,157.98 47.9,214.543 31.92,56.519 75.49,101.758 130.7,135.687 55.21,33.922 117.57,59.692 187.09,77.332 69.5,17.621 141.51,30.438 216.02,38.41 89.8,9.321 162.64,17.789 218.52,25.45 55.88,7.629 96.61,19.609 122.23,35.918 25.6,16.301 38.41,41.731 38.41,76.331 v 5.99 c 0,75.16 -22.29,133.35 -66.85,174.62 -44.57,41.22 -108.76,61.85 -192.57,61.85 -88.48,0 -158.5,-19.3 -210.04,-57.87 -51.55,-38.59 -86.31,-84.16 -104.27,-136.7 l -337.25,47.89 c 26.6,93.13 70.5,171.12 131.71,233.99 61.19,62.86 136.02,110.08 224.5,141.69 88.46,31.58 186.25,47.39 293.35,47.39 73.84,0 147.33,-8.66 220.51,-25.95 73.17,-17.3 140.02,-45.74 200.56,-85.31 60.52,-39.58 109.26,-93.29 146.17,-161.14 36.92,-67.85 55.38,-152.66 55.38,-254.43 V 30.9219 H 3648.68 V 241.461 h -11.98 c -21.95,-42.582 -52.72,-82.32 -92.29,-119.242 C 3504.83,85.3125 3455.26,55.7109 3395.74,33.4297 3336.2,11.1523 3266.52,0 3186.71,0"
         style="fill:#171818;fill-opacity:1;fill-rule:nonzero;stroke:none"
         id="path38" />
      <path
         d="m 6888.98,4835.2 c -4.15,-11.24 -12.57,-18.19 -24.34,-18.59 -24.74,-0.67 -49.61,-0.81 -74.35,0 -14.71,0.53 -25.67,13.5 -25.81,28.08 -0.26,14.58 10.44,28.08 25.15,28.75 25.4,0.94 50.81,0.67 76.21,-0.14 5.89,-0.13 11.64,-4.41 14.98,-5.75 9.49,-11.23 12.3,-21.26 8.16,-32.35 z m -187.21,259.81 c 16.18,32.62 32.5,65.52 49.34,99.48 14.44,-13.24 29.96,-22.46 50.28,-24.06 -18.58,-37.45 -36.64,-73.95 -54.96,-110.73 -15.24,12.04 -29.55,23.41 -44.66,35.31 z m 72.88,181.19 c 17.92,17.92 46.4,18.32 64.32,0.67 17.92,-17.66 18.05,-46.41 0.27,-64.32 -17.79,-18.06 -46.27,-18.32 -64.32,-0.67 -17.79,17.38 -17.92,46.4 -0.27,64.32 z m -351.68,-56.03 c -17.65,0 -24.87,7.62 -24.87,25.94 0,19.39 6.82,27.01 24.87,27.01 52.02,0.13 104.16,0.13 156.31,-0.13 6.29,0 12.58,-2.41 16.72,-3.21 10.7,-12.84 9.77,-25.01 6.29,-36.64 -3.21,-10.7 -12.7,-13.1 -23.01,-13.1 -52.01,0.13 -104.16,0 -156.31,0.13 z m 145.22,-74.62 c -44.4,7.09 -89.46,7.36 -133.85,-0.13 0,15.64 0.13,30.35 0.13,44.53 44.13,0 88.79,-0.14 133.99,-0.14 -0.14,-13.9 -0.14,-28.48 -0.27,-44.26 z m -1.74,202.99 v -44.13 c -42.52,0 -87.46,0 -132.51,0.13 0,14.05 0.13,29.55 0.13,44.26 44.26,-0.13 89.06,-0.13 132.38,-0.26 z m -168.21,51.75 c -0.27,3.87 -0.27,7.62 0,11.5 0.8,12.43 8.28,20.32 20.72,20.46 54.56,0.13 109.25,0.13 163.94,0 12.84,-0.14 20.59,-8.16 21.12,-21 0.41,-9.09 1.48,-18.59 -5.61,-27.41 -5.08,-1.47 -10.03,-4.28 -15.11,-4.28 -54.69,-0.4 -109.25,-0.4 -163.94,-0.13 -12.84,0 -20.46,8.02 -21.12,20.86 z m -0.14,165.14 c 0.14,17.78 6.95,25.94 23,26.07 53.35,0.14 106.84,0.14 160.19,-0.13 16.18,0 22.87,-8.29 22.87,-27.01 0,-17.65 -7.09,-25.68 -23.13,-25.81 -20.06,-0.27 -40.12,0 -60.05,-0.14 -7.49,0 -13.1,-2.94 -15.1,-10.55 -1.88,-7.09 0.8,-12.84 7.08,-16.06 3.08,-1.73 7.22,-1.87 10.97,-1.87 14.98,-0.13 29.82,0.14 44.39,0.14 0,-16.71 -0.13,-32.23 -0.13,-46.67 -44.26,0.14 -89.2,0.14 -133.45,0.27 0.13,13.77 0.13,29.42 0.27,46.8 7.62,-0.13 16.44,-0.67 25.27,-0.54 10.56,0 16.58,5.49 16.58,14.18 0,8.69 -6.15,14.17 -16.71,14.3 -12.98,0.14 -26.08,-0.13 -39.05,0.14 -16.32,0.27 -23,8.29 -23,26.88 z m 35.16,79.83 c 1.21,21.26 16.59,37.44 37.85,38.38 19.92,0.8 39.98,0.8 60.04,0 21.53,-0.94 36.9,-17.52 37.84,-39.19 0.4,-7.62 0,-15.24 0,-21.52 -45.06,0 -90,0 -135.99,0.13 0,6.42 -0.13,14.31 0.26,22.2 z M 6255.83,5059.7 c -18.32,36.91 -36.38,73.15 -54.83,110.46 19.65,2.54 35.97,10.16 50.01,24.73 16.85,-33.96 33.3,-67.12 49.61,-99.88 -15.24,-12.04 -29.55,-23.4 -44.79,-35.31 z m -92.27,152.44 c -18.05,17.79 -18.32,46.27 -0.81,64.19 17.66,17.92 46.41,18.05 64.32,0.27 18.06,-17.79 18.32,-46.27 0.67,-64.19 -17.65,-17.92 -46.27,-18.05 -64.18,-0.27 z m 45.73,-338.3 c 12.57,-0.14 21.93,-6.42 26.48,-18.32 4.54,-11.5 1.74,-21.8 -8.83,-33.7 -4.14,-1.2 -11.1,-5.08 -18.32,-5.21 -22.47,-0.81 -45.06,-0.54 -67.66,-0.27 -17.11,0.13 -29.42,12.43 -29.55,28.62 0,15.91 12.44,28.61 29.28,28.88 22.87,0.4 45.73,0.4 68.6,0 z m 225.05,-329.22 c 44.39,-7.08 89.18,-7.08 133.45,0 0,-1.33 0,-2.67 0.13,-4.01 0.4,-10.83 1.47,-21.26 0.54,-31.69 -1.74,-19.52 -17.92,-34.36 -37.71,-35.03 -19.66,-0.67 -39.45,-0.67 -59.11,0 -19.92,0.67 -36.1,15.37 -37.84,34.9 -0.8,9.36 -0.13,18.72 0.27,28.48 0.13,2.41 0.27,4.95 0.27,7.35 z m 426.29,357.97 c -9.23,0.13 -18.32,-0.67 -27.54,-0.94 -1.07,4.55 -1.88,7.62 -2.55,10.7 -10.43,43.59 -29.68,83.04 -58.16,117.67 -4.15,5.08 -4.55,8.56 -1.74,14.18 20.59,41.18 40.91,82.63 61.64,123.68 2.41,4.69 6.82,9.1 11.37,11.91 32.22,19.12 46,58.16 31.95,92.53 -14.17,34.76 -52.14,53.48 -88.38,43.46 -35.97,-9.9 -58.44,-44.53 -53.76,-81.84 0.54,-4.68 -0.13,-10.16 -2.14,-14.31 -11.89,-25 -24.19,-49.74 -36.63,-74.48 -5.89,-11.76 -11.91,-23.67 -17.12,-34.1 -26.07,9.36 -51.21,18.19 -76.09,27.55 -1.86,0.67 -3.47,4.68 -3.61,7.22 -0.27,13.64 -0.53,27.41 0.14,41.06 0.13,3.07 2.94,7.35 5.74,8.82 20.47,10.3 28.89,27.01 29.16,49.47 0.4,23.54 -7.49,41.72 -29.29,52.15 -4.41,2.01 -6.15,4.28 -6.02,9.23 0.41,12.97 0.27,26.08 0,39.04 0,4.68 0.94,7.36 5.62,9.5 21.26,9.62 29.55,27.01 29.69,49.87 0.27,23.54 -7.89,41.33 -29.69,52.02 -2.54,1.34 -5.08,5.35 -5.21,8.29 -0.54,12.71 0,25.41 -0.41,38.11 -0.13,5.89 1.34,8.69 6.96,11.5 21,10.16 28.62,28.08 28.35,50.82 -0.14,22.33 -8.03,39.71 -28.62,49.6 -5.21,2.55 -6.95,5.22 -6.55,10.57 1.34,20.99 -1.07,41.18 -13.1,59.37 l -14.85,14.84 c -46.53,18.99 -92.93,20.06 -139.07,-1.47 -4.4,-4.41 -8.95,-8.96 -13.5,-13.37 -2.67,-5.75 -6.68,-11.1 -7.75,-17.12 -2.41,-14.3 -3.75,-28.74 -4.82,-43.19 -0.26,-4.68 -1.34,-7.22 -5.75,-9.23 -21.79,-10.02 -29.69,-27.94 -29.55,-51.07 0,-22.74 8.15,-39.99 29.02,-50.55 2.67,-1.34 5.75,-4.95 5.88,-7.76 0.53,-13.9 0.53,-27.94 0,-41.98 -0.13,-2.54 -2.67,-6.16 -5.08,-7.36 -21.4,-10.29 -29.82,-27.81 -29.82,-50.94 -0.14,-23.14 7.89,-41.06 29.55,-50.95 4.68,-2 5.88,-4.55 5.75,-9.23 -0.4,-12.83 -0.4,-25.54 0,-38.24 0.13,-5.35 -1.2,-8.16 -6.55,-10.7 -21.13,-9.9 -28.89,-27.81 -28.75,-50.54 0,-22.74 8.02,-39.99 28.89,-50.55 2.8,-1.47 5.88,-5.62 6.01,-8.69 0.67,-13.64 -0.13,-27.41 0.4,-41.05 0.13,-5.75 -2.41,-7.22 -7.22,-8.96 -21.93,-8.02 -43.72,-16.72 -65.66,-25.14 -2,-0.8 -4,-1.47 -6.41,-2.41 -18.99,38.25 -37.85,76.09 -56.44,113.93 -1.33,2.81 -0.66,6.82 -0.26,10.17 3.61,30.75 -7.36,55.36 -32.76,72.34 -35.3,23.66 -82.37,12.7 -104.04,-23.27 -21.65,-35.97 -9.35,-81.84 27.28,-103.36 4.29,-2.55 8.43,-6.82 10.7,-11.24 20.33,-40.25 39.98,-80.9 60.44,-121.15 3.75,-7.35 4.82,-12.84 -2.14,-18.85 -3.88,-3.48 -6.55,-8.56 -9.76,-12.84 -24.06,-33.96 -40.25,-71.27 -48.8,-112.85 -8.96,0.13 -17.79,0.26 -26.62,0.13 -34.36,-0.27 -59.9,-24.61 -60.17,-57.1 -0.13,-33.16 25.27,-57.63 60.31,-57.9 8.82,0 17.52,0.54 25.54,0.8 31.56,-127.83 113.79,-202.58 236.14,-238.15 0,-3.61 -0.13,-7.09 -0.13,-10.7 -0.13,-8.15 -0.26,-16.31 -0.13,-24.47 0.67,-40.24 29.95,-69.53 70.34,-70.06 16.57,-0.14 33.16,0 49.6,0 44,0.13 73.14,29.15 73.14,72.87 0.14,8.83 -0.53,17.78 -0.93,26.48 -0.14,2 -0.14,4.01 -0.27,6.01 5.08,1.61 7.89,2.41 10.57,3.21 40.24,11.24 77.28,29.02 110.71,54.03 8.29,6.28 10.44,14.31 5.35,21.26 -5.08,7.08 -12.84,7.89 -21.79,2 -3.61,-2.41 -7.23,-5.21 -10.83,-7.62 -57.9,-39.04 -122.22,-56.03 -191.36,-55.09 -99.61,1.34 -185.46,34.23 -249.91,113.39 -25.01,30.89 -41.32,66.06 -50.01,105.91 17.38,-0.54 33.56,2 46.8,13.64 13.5,11.63 20.59,26.47 20.59,44.26 -0.14,33.43 -20.06,50.81 -66.86,58.43 0.54,3.08 0.94,6.15 1.74,9.09 16.84,63.39 51.88,115 106.58,150.84 106.83,70.2 220.9,77.55 337.37,27.68 77.82,-33.43 130.5,-92.13 154.44,-174.64 1.2,-4.41 2.14,-8.96 3.21,-13.51 -43.06,-3.2 -65.79,-22.46 -67.13,-55.75 -1.47,-34.77 19.12,-53.49 66.86,-60.85 -0.4,-1.86 -0.67,-3.74 -1.07,-5.48 -10.03,-41.32 -29.69,-77.55 -56.97,-109.91 -7.22,-8.7 -7.35,-16.99 -0.66,-22.6 6.81,-6.02 15.51,-4.28 22.99,4.68 23.54,27.95 42.26,58.7 54.16,93.46 4.55,13.24 8.03,26.75 12.7,42.13 8.56,-0.4 17.79,-1.34 26.88,-1.21 33.7,0.41 58.71,25.14 58.71,57.5 0,32.1 -25.28,56.97 -58.84,57.37"
         style="fill:#45bf9c;fill-opacity:1;fill-rule:nonzero;stroke:none"
         id="path40" />
      <path
         d="m 6671.29,4805.51 c -0.41,-20.86 -9.1,-38.65 -23.94,-54.02 -14.84,-14.44 -33.03,-23.4 -54.16,-23.54 -61.37,-0.4 -122.75,-1.07 -184.12,0.14 -42.66,0.8 -76.22,34.76 -78.1,77.55 -1.07,26.34 -0.93,52.69 0.14,79.03 1.74,42.65 35.43,76.76 78.09,77.42 61.24,1.07 122.62,1.07 183.99,0 42.53,-0.66 76.22,-34.77 78.1,-77.42 1.07,-26.34 0.66,-52.82 0,-79.16 z m -76.49,185.2 c -62.72,1.47 -125.43,0.67 -188.01,0 -28.34,-0.27 -52.15,-12.57 -71.94,-31.69 -21.53,-22.2 -32.5,-48.27 -32.76,-78.5 -0.27,-24.2 -0.53,-48.4 0,-72.6 1.2,-60.18 49.08,-108.18 109.25,-108.72 59.9,-0.66 119.67,-0.66 179.45,-0.13 60.17,0.53 108.31,48.67 109.37,108.71 0.41,24.87 0.41,49.61 0,74.48 -1.06,58.57 -46.93,107.11 -105.36,108.45"
         style="fill:#45bf9c;fill-opacity:1;fill-rule:nonzero;stroke:none"
         id="path42" />
      <path
         d="m 6462.9,4828.36 c -8.14,7.85 -9.17,15.87 -2.88,22.49 6.1,6.42 13.28,6.08 21.82,-1.04 13.61,-11.34 25.29,-11.22 39.18,0.41 7.96,6.67 15.04,6.93 21.06,0.77 6.15,-6.3 5.49,-14.52 -1.76,-21.91 -20.81,-21.24 -55.82,-21.56 -77.42,-0.72"
         style="fill:#45bf9c;fill-opacity:1;fill-rule:nonzero;stroke:none"
         id="path44" />
      <path
         d="m 6394.29,4874.81 c 1.63,-4.74 3.51,-7.93 3.69,-11.21 0.45,-7.91 0.51,-15.89 -0.02,-23.79 -0.56,-8.44 -6.52,-13.82 -14.34,-13.39 -8.1,0.44 -13.15,5.03 -13.75,13.06 -0.61,8.21 -1.35,16.74 0.28,24.65 0.96,4.67 5.69,9.96 10.11,12.08 3.63,1.74 9.31,-0.78 14.03,-1.4"
         style="fill:#45bf9c;fill-opacity:1;fill-rule:nonzero;stroke:none"
         id="path46" />
      <path
         d="m 6629.29,4831.24 c -7.91,-8.33 -22.41,-5.36 -24.15,5.09 -1.63,9.85 -1.76,20.42 0.07,30.18 0.79,4.22 7.94,9.54 12.65,10.03 4.22,0.44 12.46,-4.58 12.97,-8.07 1.62,-11.05 0.52,-22.51 0.25,-33.81 -0.04,-1.39 -1.43,-2.76 -1.79,-3.42"
         style="fill:#45bf9c;fill-opacity:1;fill-rule:nonzero;stroke:none"
         id="path48" />
    </g>
  </g>
</svg>
