<svg xmlns="http://www.w3.org/2000/svg" viewBox="0 0 522.35 223.69"><defs><style>.cls-1{fill:#319795;}</style></defs><g id="Calque_2" data-name="Calque 2"><g id="Layer_1" data-name="Layer 1"><path class="cls-1" d="M266.54,171.7v4.06h4.12v.9h-4.12v4.12h4.58v.9h-5.67V170.8h5.67v.9Z"/><path class="cls-1" d="M285.58,176.25l3.29,5.43h-1.21l-2.77-4.54-2.62,4.54h-1.22l3.28-5.47-3.28-5.39h1.22l2.75,4.52,2.65-4.52h1.22Z"/><path class="cls-1" d="M305.17,176.19a3.89,3.89,0,0,1-2.75.86h-2.19v4.63h-1.09V170.82h3.28a3.92,3.92,0,0,1,2.75.85,3.24,3.24,0,0,1,0,4.52Zm-.2-2.25a2.14,2.14,0,0,0-.6-1.65,2.86,2.86,0,0,0-1.95-.56h-2.19v4.38h2.19C304.12,176.11,305,175.39,305,173.94Z"/><path class="cls-1" d="M322.59,179.1h-4.94l-.95,2.58h-1.15l4-10.73h1.22l3.95,10.73h-1.15Zm-.32-.9-2.15-5.88L318,178.2Z"/><path class="cls-1" d="M343,181.68h-1.08l-6-9.14v9.14h-1.09V170.82h1.09l6,9.12v-9.12H343Z"/><path class="cls-1" d="M360.19,171.47a4.53,4.53,0,0,1,2,1.88,6.57,6.57,0,0,1,0,5.82,4.54,4.54,0,0,1-2,1.86,6.89,6.89,0,0,1-3.1.65h-3.21V170.82h3.21A6.76,6.76,0,0,1,360.19,171.47Zm.36,8.12a4.5,4.5,0,0,0,1.19-3.32,4.57,4.57,0,0,0-1.19-3.35,4.65,4.65,0,0,0-3.46-1.2H355v9.06h2.13A4.68,4.68,0,0,0,360.55,179.59Z"/><path class="cls-1" d="M387,170.82v10.86h-1.09V170.82Z"/><path class="cls-1" d="M406,181.68h-1.09l-6-9.14v9.14h-1.09V170.82h1.09l6,9.12v-9.12H406Z"/><path class="cls-1" d="M435.84,179.1h-4.95l-.94,2.58H428.8l4-10.73H434l3.94,10.73h-1.15Zm-.33-.9-2.15-5.88-2.14,5.88Z"/><path class="cls-1" d="M453.94,170.82v.9h-4.79v4.05h4v.9h-4v5h-1.08V170.82Z"/><path class="cls-1" d="M469.9,181.68l-2.69-4.54h-2v4.54h-1.09V170.82h3.26a3.94,3.94,0,0,1,2.76.87,3,3,0,0,1,.94,2.28,3,3,0,0,1-.68,2,3.16,3.16,0,0,1-2,1.08l2.8,4.62Zm-4.69-5.43h2.19a2.64,2.64,0,0,0,1.92-.62,2.5,2.5,0,0,0,0-3.32,2.83,2.83,0,0,0-2-.58h-2.17Z"/><path class="cls-1" d="M482.72,170.82v10.86h-1.09V170.82Z"/><path class="cls-1" d="M493.79,173.37a5,5,0,0,1,1.91-2,5.29,5.29,0,0,1,2.7-.71,5.57,5.57,0,0,1,3.12.86A4.92,4.92,0,0,1,503.4,174h-1.27a3.73,3.73,0,0,0-1.42-1.73,4.51,4.51,0,0,0-4.46-.06,3.83,3.83,0,0,0-1.5,1.61,5.24,5.24,0,0,0-.55,2.43,5.17,5.17,0,0,0,.55,2.42,3.81,3.81,0,0,0,1.5,1.6,4.11,4.11,0,0,0,2.15.56,4.19,4.19,0,0,0,2.31-.61,3.7,3.7,0,0,0,1.42-1.7h1.27a4.85,4.85,0,0,1-1.89,2.41,5.55,5.55,0,0,1-3.11.85,5.19,5.19,0,0,1-2.7-.71,5,5,0,0,1-1.91-2,5.74,5.74,0,0,1-.7-2.86A5.81,5.81,0,0,1,493.79,173.37Z"/><path class="cls-1" d="M520.25,179.1h-4.94l-.95,2.58h-1.15l4-10.73h1.23l4,10.73H521.2Zm-.33-.9-2.14-5.88-2.14,5.88Z"/><path class="cls-1" d="M276.5,51.07V92.26h41.82v9.15H276.5v41.82h46.55v9.15h-57.6V41.92h57.6v9.15Z"/><path class="cls-1" d="M384.59,97.31,418,152.38H405.73L377.65,106.3,351,152.38H338.67L372,96.83l-33.3-54.75H351L378.91,88l27-45.92H418.2Z"/><path class="cls-1" d="M501,126.18H450.86l-9.62,26.2H429.56L469.8,43.5h12.47l40.08,108.88H510.67ZM497.73,117,476,57.38,454.18,117Z"/><path class="cls-1" d="M43.78,3.69a7.86,7.86,0,0,0,2.83,2.62c1.52.61,8.48-1,9.79-1.31s6-3.33,7.88-2.93,1.62-.8,3.43-.7,6.46-.52,8.89,0c2.72-.5,6.46-2.31,6.66,1.12-.5,1-.64,1.95.71,2.66C83.26,6.52,81,8.87,81.38,9.71s.16,1.32,2.12,1.35c.6,1.21.13,1.82.47,2.09s9.32,1.48,10.4,3c-.78.57-1.28,1.65.23,2a44.71,44.71,0,0,1,6,1.78c.74.4,3.47,2.59,4.82-.3-.78-1.25-1.38-1.38-.41-2.49s2.26-4.44,4.92-3.54,4,4,9.42,4.38,4.78,1.14,6.06,1.55a13.81,13.81,0,0,0,4.77,0c.54-.13,2.9-2.25,5.49-.2s4.58-.57,6,0,3.17,11.17.17,9.45c-1.95-3.23-3.93-6.09-2.69-.57,2.76,4.21,8.82,15.45,10.53,18s2.93,2.33,3.18,5.56a10.14,10.14,0,0,0,4.3,7.62c2.32,1.51,3.68,6.66,4.34,8.18s7.57,6.16,9.49,9,.86,3.23,1.81,4.4,2.13,2.87,3.44,2.92,11-1.46,16.66-5.1c1-.35,3.48-1.71,2.92,4.3s-7.26,20.44-16,27.41c-2.82,1.41-7,4.54-8.07,6.49s-1.22,3.1-2.56,3.44a6.71,6.71,0,0,0-4.38,5.58c-.54,3.5-3,4.51-3,5s-.13,4,.21,4.51,1.14.47,1.14,1.61-.27,8.22-.27,8.49,1.62.6,2.22,2.42,1.28,6.06.67,8.28,1.15,2.56-.13,4.64-.61,3.57-1.62,4-6.66,3.3-7.6,4.44-2.29,2.36-2.53,2.7-.5.26-.57,1.07-2,.74-2.15.74-.67,1.69-.88,1.82-2.28-.13-2.89,1.28,3,6.8.2,12.79c-.54,1.68-6.73,3.9-6.86,4.71s-.21,7.6-5.79,12.18c-.94,1.35-1.45,3.22-2.31,4.23s-6.86,7.26-7.82,7.72-6.62,3-9.64,1.77a2.26,2.26,0,0,0-2.86,1.11c-.85,1.71-1.69-.66-1.69-.66a9.75,9.75,0,0,1-1.28,1.92c-.36.2-1.92-.94-2.38-.88s-2.92,4.11-6.85-.16c0,0,.67-5.32.63-5.86s-.6-1.45-.87-1.48-2.32-8-4.81-9.53-1.7-2.94-1.7-3.14-1.72-2.48-2-3.38-.3-5.86-.46-6.62-1.11-2-1.11-2.47.46-1.16.36-1.77-1-1.16-1.37-1.56a10.72,10.72,0,0,1-1.36-3.39c0-.65-1.51-3.23-1.66-4.19s-2-1-2-1.71-.56-2.93-.66-3.69-2.52-1.61-1.46-3.68c.4-2.53,1.71-8.23,2.37-11,1.06-1.86,3.38-4.14,3.58-5.7a2.6,2.6,0,0,0-.6-2.37A19.1,19.1,0,0,1,85.63,148c-.2-.51.41-6.21-.91-8.94s-2-3.48-1.81-4.44-4.09-7.07-6.51-9.44-4.45-7-4.35-8.53,3.13-8.38,3.39-9-.61-5.35-.81-6.16-1.11.58-1.24.78-1.49-1.61-1.89-1.79-5.45,1-6.21,1.06-2.32-.65-2.88-3.78a6.66,6.66,0,0,0-7.12-3.08c-1.66,1.06-5.6,3.23-9.33,3.58-1.27.2-2.48.66-2.63.66s-1.36,1.66-1.77,1.92a5.27,5.27,0,0,1-3.23-.66,11,11,0,0,0-7.62-.46c-3,1.06-5.1,2.28-6.26,2.12s-8.88-6.1-9.59-7.32a5.39,5.39,0,0,0-2.42-.4c-.91,0-3.84-2.72-3.89-4.34s.6-3.38.4-3.84S5.57,83.5,5.07,83s.45-1.82-.36-2.43a15.59,15.59,0,0,0-3.58-2C-.08,78.15.07,76.69.07,76.69s-.36-1.27.55-1.82.05-2.68.05-2.68-1.56-2.07.61-4.49c1.56-2.47,2.78-5.6,3.53-6.51a2.56,2.56,0,0,0,0-2.07A7.23,7.23,0,0,1,5.32,53c.07-1.14-.76-.78-1.14-.78a1.67,1.67,0,0,1-.55-2.6c.7-1.44,5.69-8.38,6.16-8.58s1.55-.41,2-2.76,5-5.86,6.19-6.67c.53-.52.27-1.34,2.22-2.29s3.36-2.18,4.14-2.49,1.18-1.58,1.34-1.44a2.13,2.13,0,0,0,1.28-.14c.21-.13.34-2.12.64-2.19s1-.26,1.21-.3A3.46,3.46,0,0,0,30,21.09a8.52,8.52,0,0,1,.43-3,17.72,17.72,0,0,1,8.72-7.54,12,12,0,0,0,3.6-4.25C43.13,5.57,42.67,4,43.78,3.69Z"/><path class="cls-1" d="M192,152c.5,1,1.85,11.41,1.75,11.82s-.68,2.22-2.76-.61c.13.74-.14,2.59,0,2.86s1.34,1.72.77,2.56-8.31,20.09-12,23.52c-.94,1.21-1,1.69-3,1.18-.31.2-.44,1.35-1.22,1.58a11.17,11.17,0,0,1-4,0c-.47-.23-1.21-1.65-1.48-2s.1-1.65,0-2.25-2.39-1.22-.1-3.13a36,36,0,0,1,.3-4.82c.1-.54,1.65-1.44,2.12-2.62s.34-2,1.31-2.53a14.18,14.18,0,0,1-.06-1.88c0-.17-1.25-1.92-.47-3.37-.34-.8-1.42-2,.13-3.53s3-4.38,6.87-4.41c1.07-1,1.91-1.55,2-1.68s1.42.07,1.72.07,2.26-3.94,2.9-4.31c.13-.88-.07-2,1.81-2s1.18-1.82,1.11-2.19S191.12,151.6,192,152Z"/><path class="cls-1" d="M142.77,222.83l-1.52-7.45A105,105,0,0,0,120.09,7.61a105.87,105.87,0,0,0-23.65,2.67L94.73,2.87A112.65,112.65,0,0,1,232.65,112.56C232.65,165.8,194.85,212.18,142.77,222.83Z"/><path class="cls-1" d="M87.93,220.46C40.59,206.37,7.53,162,7.53,112.56a113.24,113.24,0,0,1,.6-11.66l7.57.78a106.54,106.54,0,0,0-.56,10.88c0,46.1,30.83,87.47,75,100.61Z"/></g></g></svg>