<svg width="551" height="294" viewBox="0 0 551 294" fill="none" xmlns="http://www.w3.org/2000/svg">
<g clip-path="url(#clip0_119_92)">
<path d="M121.24 164.551C125.24 164.551 128.585 163.441 131.274 161.22C133.962 158.999 135.971 156.014 137.299 152.263C138.627 148.513 139.291 144.336 139.291 139.729C139.291 135.091 138.627 130.889 137.299 127.121C135.971 123.355 133.962 120.353 131.274 118.115C128.585 115.879 125.24 114.76 121.24 114.76C117.141 114.76 113.74 115.879 111.034 118.115C108.329 120.353 106.313 123.355 104.985 127.121C103.656 130.889 102.993 135.091 102.993 139.729C102.993 144.336 103.656 148.513 104.985 152.263C106.313 156.014 108.329 158.999 111.034 161.22C113.74 163.441 117.141 164.551 121.24 164.551ZM121.142 178.862C113.764 178.862 107.37 177.233 101.96 173.976C96.5499 170.72 92.361 166.163 89.3935 160.307C86.4256 154.452 84.9426 147.609 84.9426 139.779C84.9426 131.949 86.4256 125.09 89.3935 119.201C92.361 113.312 96.5499 108.739 101.96 105.482C107.37 102.226 113.764 100.597 121.142 100.597C128.519 100.597 134.913 102.226 140.324 105.482C145.733 108.739 149.922 113.312 152.89 119.201C155.857 125.09 157.341 131.949 157.341 139.779C157.341 147.609 155.857 154.452 152.89 160.307C149.922 166.163 145.733 170.72 140.324 173.976C134.913 177.233 128.519 178.862 121.142 178.862Z" fill="#171818"/>
<path d="M232.098 121.619L215.867 123.396C215.408 121.751 214.613 120.204 213.482 118.757C212.35 117.309 210.834 116.141 208.932 115.253C207.03 114.365 204.703 113.92 201.948 113.92C198.242 113.92 195.136 114.727 192.628 116.339C190.12 117.951 188.882 120.04 188.915 122.606C188.882 124.81 189.693 126.603 191.349 127.985C193.004 129.366 195.751 130.502 199.587 131.39L212.473 134.153C219.622 135.7 224.942 138.15 228.434 141.506C231.926 144.861 233.688 149.253 233.721 154.681C233.688 159.452 232.302 163.655 229.565 167.29C226.827 170.925 223.031 173.763 218.179 175.802C213.326 177.842 207.752 178.862 201.456 178.862C192.21 178.862 184.766 176.912 179.127 173.014C173.487 169.115 170.126 163.679 169.044 156.705L186.406 155.027C187.193 158.449 188.865 161.031 191.423 162.775C193.981 164.519 197.308 165.39 201.407 165.39C205.637 165.39 209.038 164.519 211.613 162.775C214.187 161.031 215.474 158.876 215.474 156.31C215.474 154.138 214.645 152.346 212.99 150.931C211.334 149.517 208.768 148.431 205.292 147.675L192.407 144.96C185.16 143.447 179.799 140.889 176.324 137.287C172.847 133.684 171.126 129.12 171.159 123.593C171.126 118.922 172.397 114.867 174.971 111.429C177.545 107.992 181.135 105.327 185.742 103.435C190.349 101.543 195.669 100.597 201.702 100.597C210.556 100.597 217.531 102.489 222.63 106.272C227.728 110.055 230.885 115.171 232.098 121.619Z" fill="#171818"/>
<path d="M308.135 121.619L291.904 123.396C291.445 121.751 290.65 120.204 289.519 118.757C288.387 117.309 286.87 116.141 284.969 115.253C283.067 114.365 280.74 113.92 277.985 113.92C274.279 113.92 271.173 114.727 268.665 116.339C266.157 117.951 264.918 120.04 264.952 122.606C264.918 124.81 265.73 126.603 267.386 127.985C269.041 129.366 271.788 130.502 275.624 131.39L288.511 134.153C295.658 135.7 300.978 138.15 304.47 141.506C307.962 144.861 309.725 149.253 309.758 154.681C309.725 159.452 308.339 163.655 305.602 167.29C302.863 170.925 299.068 173.763 294.216 175.802C289.362 177.842 283.789 178.862 277.493 178.862C268.247 178.862 260.803 176.912 255.164 173.014C249.524 169.115 246.164 163.679 245.082 156.705L262.443 155.027C263.23 158.449 264.902 161.031 267.46 162.775C270.017 164.519 273.345 165.39 277.444 165.39C281.674 165.39 285.075 164.519 287.65 162.775C290.223 161.031 291.51 158.876 291.51 156.31C291.51 154.138 290.682 152.346 289.027 150.931C287.371 149.517 284.804 148.431 281.329 147.675L268.444 144.96C261.197 143.447 255.835 140.889 252.36 137.287C248.884 133.684 247.163 129.12 247.196 123.593C247.163 118.922 248.434 114.867 251.008 111.429C253.581 107.992 257.172 105.327 261.779 103.435C266.385 101.543 271.705 100.597 277.739 100.597C286.592 100.597 293.568 102.489 298.667 106.272C303.765 110.055 306.921 115.171 308.135 121.619Z" fill="#171818"/>
<path d="M338.262 60.8892C337.782 60.9654 337.289 61.0338 336.788 61.0822C336.809 61.6394 336.864 62.176 336.816 62.7126C336.727 63.7169 335.897 64.4803 334.882 64.5148C333.874 64.5493 332.859 64.5493 331.851 64.5148C330.83 64.4803 330 63.7241 329.911 62.7193C329.87 62.2382 329.904 61.7562 329.925 61.254C329.41 61.2268 328.91 61.1851 328.416 61.1372C327.011 60.9927 325.687 60.7797 324.46 60.5044V291.567H342.267V59.9812C341.067 60.3526 339.716 60.669 338.262 60.8892Z" fill="#171818"/>
<path d="M378.81 139.482C378.81 144.385 379.506 148.678 380.901 152.362C382.294 156.047 384.31 158.918 386.95 160.973C389.589 163.03 392.794 164.057 396.565 164.057C400.5 164.057 403.796 162.996 406.451 160.875C409.107 158.753 411.115 155.841 412.476 152.14C413.837 148.439 414.518 144.22 414.518 139.482C414.518 134.779 413.845 130.6 412.501 126.948C411.156 123.297 409.157 120.435 406.501 118.362C403.845 116.29 400.533 115.253 396.565 115.253C392.762 115.253 389.533 116.257 386.876 118.263C384.22 120.27 382.212 123.083 380.851 126.702C379.49 130.321 378.81 134.581 378.81 139.482ZM361.35 177.381V76.3181H379.154V114.118H379.892C380.81 112.276 382.106 110.31 383.778 108.221C385.45 106.132 387.712 104.34 390.565 102.842C393.418 101.346 397.057 100.597 401.484 100.597C407.32 100.597 412.591 102.086 417.296 105.063C422.001 108.04 425.739 112.433 428.51 118.238C431.281 124.045 432.666 131.16 432.666 139.581C432.666 147.905 431.306 154.978 428.584 160.8C425.862 166.623 422.158 171.065 417.469 174.124C412.779 177.184 407.468 178.714 401.533 178.714C397.205 178.714 393.614 177.989 390.762 176.542C387.909 175.095 385.622 173.343 383.901 171.287C382.179 169.231 380.843 167.282 379.892 165.439H378.86V177.381H361.35Z" fill="#171818"/>
<path d="M465.669 76.3181V177.381H447.864V76.3181H465.669Z" fill="#171818"/>
<path d="M517.408 178.862C509.835 178.862 503.302 177.275 497.81 174.099C492.317 170.925 488.096 166.419 485.145 160.578C482.194 154.739 480.718 147.855 480.718 139.926C480.718 132.13 482.202 125.279 485.17 119.374C488.137 113.469 492.293 108.863 497.637 105.557C502.983 102.25 509.261 100.597 516.475 100.597C521.131 100.597 525.53 101.346 529.679 102.842C533.827 104.34 537.499 106.651 540.698 109.775C543.898 112.901 546.411 116.874 548.246 121.693C550.082 126.512 551 132.246 551 138.89V144.368H489.08V132.327H533.935C533.904 128.906 533.166 125.855 531.725 123.173C530.279 120.492 528.269 118.379 525.695 116.832C523.12 115.286 520.131 114.513 516.721 114.513C513.08 114.513 509.885 115.393 507.13 117.153C504.376 118.913 502.235 121.216 500.711 124.062C499.187 126.907 498.408 130.025 498.375 133.413V143.924C498.375 148.333 499.178 152.107 500.786 155.249C502.392 158.391 504.637 160.793 507.524 162.453C510.408 164.115 513.788 164.946 517.654 164.946C520.244 164.946 522.587 164.576 524.689 163.835C526.787 163.096 528.607 162.002 530.145 160.554C531.689 159.106 532.853 157.314 533.637 155.175L550.262 157.05C549.216 161.459 547.221 165.3 544.288 168.573C541.355 171.846 537.606 174.379 533.048 176.172C528.494 177.965 523.279 178.862 517.408 178.862Z" fill="#171818"/>
<path d="M222.642 291.567V208.615C222.642 203.516 223.7 199.271 225.815 195.883C227.93 192.495 230.774 189.961 234.348 188.283C237.922 186.606 241.889 185.767 246.251 185.767C249.333 185.767 252.07 186.013 254.464 186.507C256.857 187 258.628 187.445 259.776 187.839L256.235 201.657C255.48 201.426 254.53 201.188 253.382 200.941C252.234 200.694 250.955 200.571 249.546 200.571C246.234 200.571 243.897 201.369 242.537 202.964C241.176 204.56 240.496 206.838 240.496 209.798V291.567H222.642ZM256.137 215.77V229.587H211.478V215.77H256.137Z" fill="#171818"/>
<path d="M270.103 291.567V215.77H287.367V228.403H288.153C289.531 224.028 291.899 220.647 295.26 218.262C298.621 215.877 302.466 214.684 306.794 214.684C307.778 214.684 308.884 214.726 310.114 214.807C311.344 214.89 312.368 215.013 313.188 215.178V231.61C312.434 231.347 311.245 231.109 309.623 230.895C307.999 230.681 306.433 230.574 304.925 230.574C301.679 230.574 298.769 231.273 296.195 232.671C293.621 234.07 291.597 236.002 290.121 238.469C288.646 240.937 287.908 243.782 287.908 247.006V291.567H270.103Z" fill="#171818"/>
<path d="M394.094 293.048C386.552 293.048 380.084 291.386 374.691 288.063C369.297 284.741 365.149 280.143 362.247 274.271C359.346 268.398 357.895 261.63 357.895 253.964C357.895 246.266 359.37 239.465 362.321 233.56C365.272 227.655 369.444 223.048 374.838 219.742C380.232 216.436 386.618 214.783 393.995 214.783C400.126 214.783 405.561 215.91 410.299 218.163C415.037 220.417 418.816 223.591 421.636 227.687C424.456 231.783 426.063 236.562 426.456 242.023H409.439C408.75 238.371 407.119 235.319 404.545 232.869C401.971 230.418 398.536 229.192 394.241 229.192C390.602 229.192 387.405 230.171 384.65 232.128C381.896 234.086 379.757 236.891 378.232 240.542C376.707 244.194 375.945 248.57 375.945 253.668C375.945 258.834 376.699 263.266 378.208 266.967C379.715 270.668 381.838 273.514 384.577 275.504C387.314 277.495 390.535 278.49 394.241 278.49C396.864 278.49 399.216 277.989 401.299 276.985C403.381 275.982 405.127 274.526 406.537 272.618C407.947 270.71 408.914 268.391 409.439 265.66H426.456C426.03 271.022 424.456 275.768 421.735 279.897C419.013 284.025 415.308 287.249 410.619 289.568C405.93 291.888 400.421 293.048 394.094 293.048Z" fill="#171818"/>
<path d="M467.475 279.97C471.048 279.97 474.147 279.255 476.77 277.824C479.393 276.392 481.418 274.493 482.845 272.124C484.271 269.756 484.985 267.173 484.985 264.377V255.445C484.426 255.906 483.484 256.333 482.156 256.728C480.828 257.123 479.345 257.468 477.705 257.764C476.065 258.061 474.442 258.324 472.836 258.554C471.229 258.784 469.836 258.982 468.655 259.146C465.999 259.508 463.622 260.1 461.523 260.923C459.425 261.745 457.768 262.889 456.556 264.352C455.342 265.816 454.736 267.7 454.736 270.003C454.736 273.292 455.933 275.776 458.327 277.454C460.719 279.132 463.769 279.97 467.475 279.97ZM462.852 293.097C458.064 293.097 453.76 292.233 449.941 290.506C446.121 288.779 443.104 286.222 440.891 282.833C438.678 279.444 437.571 275.266 437.571 270.298C437.571 266.022 438.358 262.485 439.932 259.689C441.506 256.892 443.653 254.655 446.375 252.977C449.096 251.3 452.17 250.025 455.597 249.153C459.023 248.282 462.573 247.648 466.245 247.253C470.672 246.793 474.262 246.374 477.016 245.995C479.771 245.617 481.779 245.025 483.042 244.218C484.304 243.413 484.935 242.154 484.935 240.443V240.147C484.935 236.43 483.836 233.552 481.64 231.512C479.442 229.472 476.279 228.452 472.147 228.452C467.786 228.452 464.334 229.406 461.794 231.314C459.252 233.222 457.54 235.476 456.655 238.075L440.03 235.706C441.341 231.101 443.505 227.243 446.523 224.134C449.539 221.025 453.227 218.69 457.589 217.127C461.949 215.565 466.769 214.783 472.049 214.783C475.688 214.783 479.311 215.211 482.919 216.066C486.525 216.922 489.82 218.328 492.804 220.285C495.788 222.243 498.19 224.899 500.01 228.255C501.829 231.61 502.739 235.805 502.739 240.838V291.567H485.623V281.155H485.033C483.951 283.261 482.434 285.226 480.484 287.052C478.533 288.877 476.089 290.342 473.155 291.444C470.221 292.546 466.786 293.097 462.852 293.097Z" fill="#171818"/>
<path d="M126.575 291.265H110.008V274.643H126.575V291.265Z" fill="#45BF9C"/>
<path d="M18.1634 138.749C18.1634 143.849 18.8879 148.315 20.3378 152.147C21.7873 155.981 23.8852 158.967 26.6312 161.105C29.3766 163.244 32.711 164.313 36.6338 164.313C40.727 164.313 44.1552 163.21 46.918 161.003C49.6807 158.795 51.77 155.766 53.1858 151.916C54.6006 148.066 55.3092 143.677 55.3092 138.749C55.3092 133.855 54.6093 129.509 53.2114 125.71C51.8121 121.911 49.732 118.934 46.9692 116.778C44.2065 114.622 40.7606 113.544 36.6338 113.544C32.6768 113.544 29.3172 114.588 26.5544 116.675C23.7917 118.763 21.7019 121.689 20.2868 125.453C18.8712 129.219 18.1634 133.65 18.1634 138.749ZM0 207.742V99.3241H18.2146V112.363H19.2891C20.2439 110.447 21.5913 108.402 23.331 106.228C25.0706 104.056 27.4244 102.191 30.3917 100.633C33.3594 99.0761 37.1457 98.2977 41.7503 98.2977C47.8211 98.2977 53.3048 99.8463 58.1997 102.943C63.0937 106.041 66.9821 110.61 69.8654 116.65C72.7472 122.69 74.1887 130.091 74.1887 138.852C74.1887 147.51 72.7729 154.868 69.9418 160.925C67.1103 166.983 63.2562 171.603 58.3787 174.786C53.5007 177.969 47.975 179.56 41.8014 179.56C37.299 179.56 33.5639 178.807 30.5966 177.301C27.6289 175.796 25.2499 173.973 23.459 171.834C21.6684 169.696 20.2779 167.668 19.2891 165.751H18.5217V207.742H0Z" fill="#171818"/>
<path d="M168.217 280.345C171.934 280.345 175.157 279.601 177.887 278.113C180.615 276.624 182.722 274.647 184.205 272.183C185.689 269.719 186.431 267.033 186.431 264.124V254.833C185.85 255.312 184.871 255.756 183.489 256.167C182.107 256.578 180.564 256.937 178.858 257.245C177.153 257.553 175.464 257.827 173.793 258.067C172.121 258.306 170.672 258.512 169.445 258.682C166.681 259.06 164.208 259.675 162.026 260.53C159.842 261.386 158.119 262.576 156.858 264.098C155.596 265.621 154.965 267.581 154.965 269.975C154.965 273.399 156.209 275.982 158.7 277.727C161.189 279.473 164.361 280.345 168.217 280.345ZM163.407 294C158.427 294 153.95 293.102 149.977 291.305C146.003 289.508 142.864 286.848 140.562 283.323C138.26 279.798 137.108 275.451 137.108 270.284C137.108 265.836 137.927 262.156 139.565 259.246C141.201 256.338 143.436 254.011 146.267 252.265C149.098 250.52 152.295 249.194 155.86 248.287C159.424 247.38 163.116 246.721 166.937 246.311C171.542 245.831 175.277 245.395 178.142 245.001C181.008 244.609 183.096 243.992 184.41 243.153C185.723 242.315 186.38 241.006 186.38 239.226V238.918C186.38 235.051 185.237 232.058 182.952 229.934C180.666 227.814 177.375 226.752 173.077 226.752C168.54 226.752 164.95 227.745 162.307 229.73C159.663 231.715 157.881 234.059 156.96 236.762L139.667 234.299C141.031 229.507 143.282 225.495 146.42 222.26C149.558 219.026 153.395 216.597 157.932 214.971C162.468 213.346 167.483 212.533 172.975 212.533C176.761 212.533 180.529 212.978 184.282 213.868C188.034 214.758 191.462 216.221 194.566 218.257C197.669 220.293 200.169 223.056 202.061 226.547C203.955 230.038 204.901 234.401 204.901 239.637V292.409H187.096V281.577H186.482C185.356 283.768 183.778 285.813 181.749 287.712C179.72 289.611 177.178 291.134 174.126 292.28C171.073 293.426 167.5 294 163.407 294Z" fill="#171818"/>
<path d="M353.252 45.2383C353.039 45.8166 352.607 46.1742 352.003 46.1947C350.735 46.2292 349.46 46.2364 348.191 46.1947C347.437 46.1675 346.875 45.5002 346.867 44.7501C346.854 44 347.403 43.3054 348.157 43.2709C349.46 43.2226 350.762 43.2365 352.065 43.2781C352.367 43.2848 352.662 43.505 352.833 43.574C353.32 44.1517 353.464 44.6677 353.252 45.2383ZM343.652 31.8716C344.481 30.1934 345.318 28.5007 346.182 26.7535C346.922 27.4347 347.718 27.909 348.76 27.9914C347.807 29.9181 346.881 31.7959 345.942 33.6882C345.16 33.0688 344.427 32.4838 343.652 31.8716ZM347.389 22.5497C348.308 21.6278 349.768 21.6072 350.687 22.5152C351.606 23.4238 351.613 24.903 350.701 25.8244C349.789 26.7535 348.328 26.7669 347.403 25.8589C346.491 24.9647 346.484 23.4716 347.389 22.5497ZM329.356 25.4323C328.451 25.4323 328.08 25.0403 328.08 24.0978C328.08 23.1002 328.43 22.7082 329.356 22.7082C332.023 22.7015 334.697 22.7015 337.371 22.7148C337.693 22.7148 338.016 22.8389 338.228 22.88C338.777 23.5406 338.729 24.1667 338.551 24.7651C338.386 25.3156 337.899 25.439 337.371 25.439C334.704 25.4323 332.03 25.439 329.356 25.4323ZM336.802 29.2714C334.525 28.9066 332.215 28.8927 329.939 29.2781C329.939 28.4734 329.945 27.7166 329.945 26.9871C332.208 26.9871 334.498 26.9943 336.816 26.9943C336.809 27.7094 336.809 28.4596 336.802 29.2714ZM336.713 18.828V21.0984C334.533 21.0984 332.228 21.0984 329.918 21.0917C329.918 20.3688 329.925 19.5714 329.925 18.8146C332.194 18.8213 334.492 18.8213 336.713 18.828ZM328.087 16.1655C328.074 15.9664 328.074 15.7735 328.087 15.5739C328.128 14.9344 328.512 14.5284 329.15 14.5212C331.948 14.5146 334.752 14.5146 337.556 14.5212C338.215 14.5284 338.612 14.9411 338.639 15.6016C338.66 16.0693 338.715 16.5581 338.352 17.0118C338.091 17.0875 337.837 17.232 337.577 17.232C334.773 17.2526 331.975 17.2526 329.17 17.2387C328.512 17.2387 328.121 16.8261 328.087 16.1655ZM328.08 7.66937C328.087 6.75463 328.437 6.33482 329.26 6.32813C331.995 6.32093 334.738 6.32092 337.474 6.33481C338.304 6.33481 338.647 6.76133 338.647 7.72444C338.647 8.6325 338.283 9.04563 337.461 9.05232C336.432 9.06621 335.403 9.0523 334.381 9.0595C333.997 9.0595 333.71 9.21077 333.607 9.60229C333.511 9.96706 333.648 10.2629 333.97 10.4286C334.128 10.5176 334.34 10.5247 334.533 10.5247C335.301 10.5314 336.062 10.5176 336.809 10.5176C336.809 11.3773 336.802 12.1757 336.802 12.9186C334.533 12.9114 332.228 12.9114 329.959 12.9047C329.966 12.1963 329.966 11.3911 329.973 10.497C330.364 10.5036 330.816 10.5314 331.269 10.5247C331.81 10.5247 332.119 10.2423 332.119 9.79522C332.119 9.34814 331.804 9.06619 331.262 9.0595C330.596 9.0523 329.925 9.06621 329.26 9.05232C328.423 9.03843 328.08 8.62579 328.08 7.66937ZM329.883 3.5623C329.945 2.46851 330.734 1.63606 331.824 1.5877C332.846 1.54654 333.874 1.54654 334.903 1.5877C336.007 1.63606 336.795 2.48907 336.843 3.60395C336.864 3.99598 336.843 4.38802 336.843 4.71111C334.533 4.71111 332.228 4.71112 329.87 4.70443C329.87 4.37413 329.863 3.96822 329.883 3.5623ZM320.785 33.6882C319.846 31.7893 318.92 29.9248 317.973 28.0053C318.981 27.8746 319.818 27.4825 320.538 26.7329C321.402 28.4801 322.245 30.1862 323.082 31.8716C322.3 32.491 321.566 33.0755 320.785 33.6882ZM316.054 25.8455C315.128 24.9302 315.114 23.465 316.012 22.543C316.918 21.6211 318.392 21.6144 319.31 22.5291C320.236 23.4444 320.25 24.9096 319.345 25.8316C318.44 26.7535 316.972 26.7602 316.054 25.8455ZM318.399 43.2504C319.043 43.2576 319.523 43.5806 319.756 44.1929C319.989 44.7845 319.846 45.3145 319.304 45.9267C319.091 45.9884 318.734 46.188 318.364 46.1947C317.212 46.2364 316.054 46.2225 314.895 46.2086C314.017 46.2019 313.386 45.5691 313.379 44.7362C313.379 43.9176 314.017 43.2643 314.881 43.2504C316.054 43.2298 317.226 43.2298 318.399 43.2504ZM329.939 60.1881C332.215 60.5523 334.512 60.5523 336.782 60.1881C336.782 60.2565 336.782 60.3255 336.788 60.3944C336.809 60.9516 336.864 61.4882 336.816 62.0248C336.727 63.0291 335.897 63.7925 334.882 63.827C333.874 63.8615 332.859 63.8615 331.851 63.827C330.83 63.7925 330 63.0362 329.911 62.0315C329.87 61.5499 329.904 61.0684 329.925 60.5662C329.931 60.4422 329.939 60.3116 329.939 60.1881ZM351.798 41.7712C351.324 41.7645 350.858 41.8057 350.386 41.8196C350.331 41.5855 350.289 41.4275 350.255 41.2691C349.72 39.0265 348.733 36.9968 347.273 35.2152C347.06 34.9538 347.039 34.7748 347.183 34.4857C348.239 32.367 349.281 30.2345 350.344 28.1226C350.468 27.8813 350.694 27.6544 350.927 27.5098C352.579 26.5261 353.286 24.5176 352.565 22.7493C351.839 20.961 349.892 19.9979 348.033 20.5134C346.189 21.0227 345.037 22.8044 345.277 24.7239C345.304 24.9647 345.27 25.2466 345.167 25.4601C344.557 26.7463 343.927 28.0192 343.289 29.292C342.987 29.897 342.678 30.5098 342.411 31.0464C341.074 30.5648 339.785 30.1105 338.509 29.629C338.414 29.5945 338.331 29.3882 338.324 29.2575C338.31 28.5558 338.297 27.8473 338.331 27.1451C338.338 26.9871 338.482 26.7669 338.626 26.6913C339.675 26.1614 340.107 25.3017 340.121 24.1461C340.141 22.9351 339.737 21.9997 338.619 21.4631C338.393 21.3597 338.304 21.2429 338.31 20.9883C338.331 20.321 338.324 19.6465 338.31 18.9797C338.31 18.739 338.358 18.6011 338.598 18.491C339.689 17.9961 340.114 17.1014 340.121 15.9253C340.135 14.7142 339.716 13.7989 338.598 13.2489C338.468 13.18 338.338 12.9737 338.331 12.8224C338.304 12.1685 338.331 11.5151 338.31 10.8617C338.304 10.5587 338.379 10.4147 338.667 10.2701C339.744 9.74738 340.135 8.82541 340.121 7.65548C340.114 6.50665 339.709 5.6125 338.653 5.10368C338.386 4.97249 338.297 4.8351 338.317 4.55986C338.386 3.47996 338.263 2.44122 337.646 1.50538L336.884 0.741897C334.498 -0.235102 332.119 -0.29014 329.753 0.817537C329.527 1.04442 329.294 1.27849 329.061 1.50538C328.924 1.8012 328.718 2.07646 328.663 2.38618C328.54 3.12188 328.471 3.86479 328.416 4.60821C328.403 4.84899 328.347 4.97967 328.121 5.08308C327.004 5.59859 326.599 6.52055 326.606 7.71055C326.606 8.88048 327.024 9.76795 328.094 10.3112C328.231 10.3802 328.389 10.5659 328.396 10.7105C328.423 11.4256 328.423 12.1479 328.396 12.8703C328.389 13.001 328.259 13.1872 328.135 13.2489C327.038 13.7783 326.606 14.6797 326.606 15.8697C326.599 17.0602 327.011 17.9822 328.121 18.491C328.361 18.5939 328.423 18.7251 328.416 18.9658C328.396 19.6259 328.396 20.2798 328.416 20.9332C328.423 21.2085 328.355 21.353 328.08 21.4837C326.997 21.993 326.599 22.9145 326.606 24.0839C326.606 25.2538 327.017 26.1413 328.087 26.6846C328.231 26.7602 328.389 26.9737 328.396 27.1317C328.43 27.8334 328.389 28.5419 328.416 29.2436C328.423 29.5395 328.293 29.6151 328.046 29.7046C326.921 30.1172 325.804 30.5648 324.679 30.998C324.576 31.0391 324.474 31.0736 324.35 31.122C323.377 29.1541 322.409 27.2073 321.456 25.2605C321.388 25.116 321.422 24.9096 321.443 24.7373C321.628 23.1552 321.065 21.8891 319.763 21.0155C317.953 19.7983 315.539 20.3621 314.428 22.2127C313.318 24.0633 313.949 26.4232 315.827 27.5304C316.047 27.6616 316.259 27.8813 316.376 28.1087C317.418 30.1795 318.426 32.2708 319.475 34.3416C319.667 34.7198 319.722 35.0022 319.365 35.3114C319.166 35.4904 319.029 35.7518 318.865 35.972C317.631 37.7192 316.801 39.6387 316.362 41.7779C315.903 41.7712 315.45 41.7645 314.997 41.7712C313.235 41.7851 311.926 43.0373 311.912 44.7089C311.905 46.4149 313.208 47.6739 315.004 47.6878C315.457 47.6878 315.903 47.66 316.314 47.6466C317.932 54.2232 322.149 58.0689 328.423 59.8989C328.423 60.0847 328.416 60.2637 328.416 60.4494C328.409 60.8687 328.403 61.2886 328.409 61.7084C328.444 63.7787 329.945 65.2856 332.016 65.3128C332.866 65.32 333.717 65.3128 334.56 65.3128C336.816 65.3062 338.31 63.8131 338.31 61.5638C338.317 61.1095 338.283 60.6491 338.262 60.2015C338.255 60.0986 338.255 59.9951 338.249 59.8923C338.509 59.8094 338.653 59.7683 338.791 59.7271C340.854 59.1488 342.753 58.2341 344.468 56.9474C344.893 56.6243 345.003 56.2111 344.742 55.8536C344.481 55.4893 344.084 55.4477 343.625 55.7507C343.44 55.8747 343.254 56.0187 343.069 56.1427C340.1 58.1513 336.802 59.0254 333.257 58.977C328.149 58.908 323.747 57.2159 320.442 53.1433C319.159 51.5541 318.323 49.7446 317.878 47.6944C318.769 47.7222 319.598 47.5915 320.277 46.9927C320.97 46.3943 321.333 45.6309 321.333 44.7156C321.326 42.9957 320.305 42.1015 317.905 41.7095C317.932 41.551 317.953 41.3931 317.994 41.2418C318.857 37.9805 320.654 35.3253 323.459 33.4814C328.937 29.8697 334.786 29.4916 340.759 32.0573C344.749 33.7772 347.45 36.7972 348.678 41.0422C348.74 41.2691 348.788 41.5032 348.843 41.7373C346.635 41.9019 345.469 42.8928 345.4 44.6055C345.325 46.3943 346.381 47.3575 348.829 47.7361C348.808 47.8318 348.794 47.9285 348.774 48.018C348.26 50.1439 347.251 52.0079 345.853 53.6727C345.482 54.1203 345.476 54.5468 345.819 54.8354C346.168 55.1451 346.614 55.0556 346.998 54.5947C348.205 53.1567 349.165 51.5747 349.775 49.7863C350.008 49.1052 350.187 48.4101 350.426 47.6188C350.865 47.6394 351.338 47.6877 351.804 47.681C353.532 47.66 354.815 46.3876 354.815 44.7228C354.815 43.0713 353.519 41.7918 351.798 41.7712Z" fill="#45BF9C"/>
<path d="M342.089 46.7658C342.068 47.839 341.622 48.7542 340.861 49.545C340.1 50.2879 339.167 50.7489 338.084 50.7561C334.937 50.7767 331.789 50.8112 328.643 50.7489C326.455 50.7077 324.734 48.9605 324.638 46.7591C324.583 45.4039 324.59 44.0483 324.645 42.6932C324.734 40.4989 326.462 38.744 328.649 38.7101C331.79 38.655 334.937 38.655 338.084 38.7101C340.265 38.744 341.992 40.4989 342.089 42.6932C342.144 44.0483 342.122 45.4107 342.089 46.7658ZM338.166 37.2376C334.95 37.162 331.735 37.2031 328.526 37.2376C327.072 37.2515 325.852 37.8843 324.837 38.868C323.733 40.0101 323.17 41.3514 323.157 42.9067C323.143 44.1517 323.13 45.3968 323.157 46.6418C323.218 49.7379 325.674 52.2074 328.759 52.2352C331.831 52.2692 334.895 52.2692 337.961 52.2419C341.046 52.2147 343.515 49.7379 343.569 46.649C343.59 45.3695 343.59 44.0967 343.569 42.8172C343.515 39.8038 341.163 37.3065 338.166 37.2376Z" fill="#45BF9C"/>
<path d="M331.403 45.5902C330.986 45.1864 330.933 44.7737 331.255 44.4331C331.568 44.1028 331.936 44.1203 332.374 44.4866C333.072 45.0701 333.671 45.0639 334.383 44.4655C334.791 44.1224 335.155 44.109 335.463 44.4259C335.779 44.7501 335.745 45.173 335.373 45.5532C334.306 46.6459 332.511 46.6624 331.403 45.5902Z" fill="#45BF9C"/>
<path d="M327.885 43.2005C327.968 43.4443 328.065 43.6085 328.074 43.7772C328.097 44.1842 328.1 44.5947 328.073 45.0012C328.044 45.4354 327.739 45.7122 327.338 45.69C326.922 45.6674 326.663 45.4313 326.633 45.0181C326.601 44.5957 326.563 44.1569 326.647 43.7499C326.696 43.5097 326.939 43.2375 327.165 43.1284C327.351 43.0389 327.643 43.1686 327.885 43.2005Z" fill="#45BF9C"/>
<path d="M339.935 45.4421C339.53 45.8707 338.786 45.7179 338.697 45.1802C338.613 44.6735 338.607 44.1297 338.7 43.6276C338.741 43.4104 339.108 43.1367 339.349 43.1115C339.565 43.0889 339.988 43.3471 340.014 43.5267C340.097 44.0952 340.041 44.6848 340.027 45.2662C340.025 45.3377 339.954 45.4081 339.935 45.4421Z" fill="#45BF9C"/>
</g>
<defs>
<clipPath id="clip0_119_92">
<rect width="551" height="294" fill="white"/>
</clipPath>
</defs>
</svg>
